<?xml version="1.0" standalone="no"?>
<!DOCTYPE svg PUBLIC "-//W3C//DTD SVG 20010904//EN"
 "http://www.w3.org/TR/2001/REC-SVG-20010904/DTD/svg10.dtd">
<svg version="1.0" xmlns="http://www.w3.org/2000/svg"
 width="100.000000pt" height="100.000000pt" viewBox="0 0 100.000000 100.000000"
 preserveAspectRatio="xMidYMid meet">
<metadata>
Created by potrace 1.14, written by Peter Selinger 2001-2017
</metadata>
<g transform="translate(0.000000,100.000000) scale(0.100000,-0.100000)"
fill="#000000" stroke="none">
<path d="M393 985 c-181 -39 -330 -186 -378 -372 -53 -204 48 -436 238 -547
62 -37 174 -66 252 -66 219 0 424 161 480 377 70 270 -106 550 -384 609 -80
17 -127 17 -208 -1z m282 -111 c163 -77 266 -266 237 -434 -33 -182 -169 -319
-350 -350 -218 -38 -435 122 -471 348 -27 167 61 342 211 422 84 45 107 50
218 46 80 -3 105 -8 155 -32z"/>
<path d="M280 722 c-39 -39 -39 -74 -1 -113 36 -35 70 -37 107 -5 54 46 30
127 -43 142 -27 5 -37 1 -63 -24z"/>
<path d="M640 743 c-35 -13 -50 -37 -50 -78 0 -48 19 -71 68 -81 26 -5 36 -1
62 24 41 41 41 81 -1 116 -30 25 -49 30 -79 19z"/>
<path d="M276 424 c-19 -19 -20 -26 -3 -67 63 -149 264 -195 387 -89 71 60
100 148 54 166 -20 8 -54 -10 -54 -29 0 -8 -16 -33 -36 -55 -83 -91 -217 -72
-274 40 -16 31 -37 50 -55 50 -2 0 -11 -7 -19 -16z"/>
</g>
</svg>
