<?xml version="1.0" standalone="no"?>
<!DOCTYPE svg PUBLIC "-//W3C//DTD SVG 20010904//EN"
 "http://www.w3.org/TR/2001/REC-SVG-20010904/DTD/svg10.dtd">
<svg version="1.0" xmlns="http://www.w3.org/2000/svg"
 width="100.000000pt" height="108.000000pt" viewBox="0 0 100.000000 108.000000"
 preserveAspectRatio="xMidYMid meet">
<metadata>
Created by potrace 1.14, written by Peter Selinger 2001-2017
</metadata>
<g transform="translate(0.000000,108.000000) scale(0.100000,-0.100000)"
fill="#000000" stroke="none">
<path d="M516 1059 c-34 -27 -51 -60 -65 -131 -10 -48 -24 -72 -84 -145 -105
-130 -94 -123 -214 -123 -97 0 -106 -2 -128 -25 l-25 -24 0 -235 c0 -234 0
-235 24 -263 24 -27 27 -28 163 -34 119 -6 151 -11 233 -39 77 -26 116 -33
205 -37 136 -6 183 5 235 57 30 30 40 49 46 87 4 26 14 58 22 70 14 22 26 86
40 213 4 36 13 75 20 87 31 56 4 145 -61 197 -33 26 -46 30 -121 34 l-84 4 14
40 c27 78 14 177 -30 227 -27 30 -92 60 -132 61 -17 0 -43 -9 -58 -21z m116
-81 c39 -20 45 -125 11 -191 -20 -39 -42 -115 -35 -121 3 -4 63 -6 134 -6 114
0 130 -2 148 -20 29 -29 34 -63 15 -104 -10 -20 -21 -36 -26 -36 -6 0 -5 -8 1
-19 14 -28 12 -67 -5 -101 -8 -16 -12 -41 -9 -57 3 -18 -2 -42 -16 -68 -11
-21 -20 -53 -20 -71 0 -115 -168 -136 -425 -54 -49 16 -105 32 -123 35 l-32 7
0 203 0 203 28 5 c29 6 84 61 179 176 39 48 55 79 67 126 27 108 32 116 63
109 16 -4 36 -11 45 -16z"/>
</g>
</svg>
